<svg xmlns="http://www.w3.org/2000/svg" width="17" height="17" fill="none" viewBox="0 0 17 17"><path fill="#838691" fill-rule="evenodd" d="M11.946 4.525a.987.987 0 1 0 1.974 0 .987.987 0 0 0-1.974 0m-.365 7.342a4.34 4.34 0 0 0 1.253-2.975c.026-1.178-.337-2.203-1.049-2.963-.75-.802-1.845-1.246-3.162-1.284a4.05 4.05 0 0 0-2.956 1.16A4.3 4.3 0 0 0 4.37 8.878a4.237 4.237 0 0 0 4.232 4.232 4.17 4.17 0 0 0 2.979-1.242M5.4.934h6.4c2.51 0 4.55 2.04 4.55 4.55v6.83c0 2.508-2.04 4.55-4.55 4.55H5.4a4.556 4.556 0 0 1-4.55-4.55v-6.83c0-2.51 2.04-4.55 4.55-4.55m3.102 5.135.077.001c.93.027 1.678.316 2.163.834.452.482.682 1.159.664 1.957-.034 1.582-1.267 2.822-2.806 2.822a2.81 2.81 0 0 1-2.806-2.807c0-.767.315-1.514.865-2.047a2.63 2.63 0 0 1 1.843-.76" clip-rule="evenodd"/></svg>