<svg xmlns="http://www.w3.org/2000/svg" width="21" height="15" fill="none" viewBox="0 0 21 15"><path fill="#838691" fill-rule="evenodd" d="m20.194 3.952.091 1.015q.092 1.015.092 2.212v1.51q0 1.222-.092 2.224l-.091 1.002-.183.755q-.184.754-.629 1.223-.576.572-1.139.69a8 8 0 0 1-.85.142q-1.075.079-2.29.117-1.218.039-2.265.066-1.047.026-1.754.026h-.707l-.838-.013a262 262 0 0 1-4.227-.104q-1.14-.04-1.741-.092-.34-.051-.982-.156t-1.217-.676q-.445-.469-.629-1.223l-.183-.755-.091-1.002a25 25 0 0 1-.092-2.225v-1.51q0-1.196.092-2.21L.56 3.951l.183-.754Q.927 2.442 1.372 2q.576-.6 1.138-.703.564-.105.851-.156a57 57 0 0 1 2.29-.117Q6.87.985 7.917.973 8.963.959 9.67.947l.707-.013.707.013q.707.012 1.754.026t2.264.052 2.29.117l.851.156q.562.104 1.14.703.444.441.628 1.197zM8.024 10.85l5.294-2.903-5.294-2.93z" clip-rule="evenodd" opacity=".9"/></svg>